.
..............................Site Info...........................

 -   http://www.scenetime.com  *_*    

Scenetime .Always on time . friendly online private torrent community ..

     We care to share . Join us on  http://www.scenetime.com 

    Be the first to get new release at  http://www.scenetime.com

        Seed back for speed


...................................NFO:.................................................[center][img]http://lookpic.com/O/i2/189/iBnG9UkQ.jpeg[/img][/center]

[pre][b]
Sources: 
video: 720 MATiNE cheers guys
Audio: COSA NOSTRA cheers guys

Hit.and.Run.2012.TS.XviD-INTREPID

Format                                   : AVI
Format/Info                              : Audio Video Interleave
File size                                : 703 MiB
Duration                                 : 1h 32mn
Overall bit rate                         : 1 058 Kbps
Writing application                      : VirtualDubMod 1.5.10.2 (build 2542/release)
Writing library                          : VirtualDub build 32842/release

Video
ID                                       : 0
Format                                   : MPEG-4 Visual
Format profile                           : Advanced Simple@L5
Format settings, BVOP                    : 2
Format settings, QPel                    : Yes
Format settings, GMC                     : No warppoints
Format settings, Matrix                  : Default (MPEG)
Muxing mode                              : Packed bitstream
Codec ID                                 : XVID
Codec ID/Hint                            : XviD
Duration                                 : 1h 32mn
Bit rate                                 : 920 Kbps
Width                                    : 640 pixels
Height                                   : 272 pixels
Display aspect ratio                     : 2.35:1
Frame rate                               : 25.000 fps
Color space                              : YUV
Chroma subsampling                       : 4:2:0
Bit depth                                : 8 bits
Scan type                                : Progressive
Compression mode                         : Lossy
Bits/(Pixel*Frame)                       : 0.211
Stream size                              : 612 MiB (87%)
Writing library                          : XviD 64

Audio
ID                                       : 1
Format                                   : MPEG Audio
Format version                           : Version 1
Format profile                           : Layer 3
Mode                                     : Joint stereo
Mode extension                           : MS Stereo
Codec ID                                 : 55
Codec ID/Hint                            : MP3
Duration                                 : 1h 32mn
Bit rate mode                            : Constant
Bit rate                                 : 128 Kbps
Channel(s)                               : 2 channels
Sampling rate                            : 44.1 KHz
Compression mode                         : Lossy
Delay relative to video                  : 11ms
Stream size                              : 85.1 MiB (12%)
Alignment                                : Split accross interleaves
Interleave, duration                     : 40 ms (1.00 video frame)
Interleave, preload duration             : 500 ms
Writing library                          : LAME3.99.5

SCREENS:[/b][/pre]

[center][img]http://lookpic.com/O/i2/1809/2icF9CAB.png[/img][/center]
[center][img]http://lookpic.com/O/i2/1767/dYo1PPPr.png[/img][/center]
[center][img]http://lookpic.com/O/i2/1709/YPV9C5V7.png[/img][/center]
[center][img]http://lookpic.com/O/i2/959/NVTgyK41.png[/img][/center]